# xmcd
#
# Track frame offsets: 
#        150
#        17457
#        34417
#        54182
#
# Disc length: 993 seconds
#
# Revision: 0
# Processed by: cddbd v1.5.2PL0 Copyright (c) Steve Scherf et al.
# Submitted via: ExactAudioCopyFreeDBPlugin 1.0
#
DISCID=2503df04
DTITLE=庾澄庆 - 别走
DYEAR=1900
DGENRE=Blues
TTITLE0=别走
TTITLE1=热情的沙漠
TTITLE2=让自己hight
TTITLE3=我知道我已经长大
EXTD=
EXTT0=
EXTT1=
EXTT2=
EXTT3=
PLAYORDER=
